<?xml version="1.0" encoding="iso-8859-1"?>

<svg version="1.1" xmlns="http://www.w3.org/2000/svg" fill="#bdbdbd" xmlns:xlink="http://www.w3.org/1999/xlink" x="0px" y="0px" width="512px"
	 height="512px" viewBox="0 0 512 512" style="enable-background:new 0 0 512 512;" xml:space="preserve">
<g id="Guides_For_Artboard">
</g>
<g id="_x30_">
</g>
<g id="_x31_">
</g>
<g id="_x32_">
</g>
<g id="_x33_">
</g>
<g id="_x34_">
</g>
<g id="_x35_">
</g>
<g id="_x36_">
</g>
<g id="_x37_">
</g>
<g id="_x38_">
</g>
<g id="_x39_">
</g>
<g id="_x31_0">
</g>
<g id="_x31_1">
</g>
<g id="_x31_2">
</g>
<g id="_x31_3">
</g>
<g id="_x31_4">
</g>
<g id="_x31_5">
	<g>
		<path d="M132.029,128.62h6.938c10.544,0,19.091-8.55,19.091-19.091V56.846V37.14c0-10.541-8.547-19.09-19.091-19.09h-6.938
			c-10.543,0-19.09,8.549-19.09,19.09v19.707v52.682C112.939,120.07,121.486,128.62,132.029,128.62z"/>
		<path d="M376.897,128.147h6.938c10.543,0,19.09-8.549,19.09-19.091V51.846v-15.18c0-10.54-8.547-19.089-19.09-19.089h-6.938
			c-10.544,0-19.091,8.549-19.091,19.089v15.18v57.209C357.807,119.598,366.354,128.147,376.897,128.147z"/>
		<path d="M467.44,56.846h-48.996v57.209c0,19.084-15.525,29.61-34.608,29.61h-6.938c-19.084,0-34.609-15.526-34.609-34.61V56.846
			H173.577v52.682c0,19.084-15.525,34.61-34.609,34.61h-6.938c-19.083,0-34.608-15.526-34.608-34.61V56.846H44.56
			c-17.113,0-31.036,13.923-31.036,31.037v375.03c0,17.114,13.923,31.037,31.036,31.037H467.44
			c17.113,0,31.036-13.923,31.036-31.037V87.883C498.477,70.77,484.554,56.846,467.44,56.846z M467.44,462.913H44.561L44.56,179.7
			h422.885l0.016,283.212C467.46,462.912,467.453,462.913,467.44,462.913z"/>
		<path d="M272.022,274.698h55.726c2.209,0,4-1.791,4-4v-48.255c0-2.209-1.791-4-4-4h-55.726c-2.209,0-4,1.791-4,4v48.255
			C268.022,272.907,269.813,274.698,272.022,274.698z"/>
		<path d="M362.967,274.698h55.726c2.209,0,4-1.791,4-4v-48.255c0-2.209-1.791-4-4-4h-55.726c-2.209,0-4,1.791-4,4v48.255
			C358.967,272.907,360.758,274.698,362.967,274.698z"/>
		<path d="M90.135,353.698h55.726c2.209,0,4-1.791,4-4v-48.255c0-2.209-1.791-4-4-4H90.135c-2.209,0-4,1.791-4,4v48.255
			C86.135,351.907,87.926,353.698,90.135,353.698z"/>
		<path d="M181.079,353.698h55.726c2.209,0,4-1.791,4-4v-48.255c0-2.209-1.791-4-4-4h-55.726c-2.209,0-4,1.791-4,4v48.255
			C177.079,351.907,178.87,353.698,181.079,353.698z"/>
		<path d="M272.023,353.698h55.726c2.209,0,4-1.791,4-4v-48.255c0-2.209-1.791-4-4-4h-55.726c-2.209,0-4,1.791-4,4v48.255
			C268.023,351.907,269.814,353.698,272.023,353.698z"/>
		<path d="M362.968,353.698h55.726c2.209,0,4-1.791,4-4v-48.255c0-2.209-1.791-4-4-4h-55.726c-2.209,0-4,1.791-4,4v48.255
			C358.968,351.907,360.759,353.698,362.968,353.698z"/>
		<path d="M145.861,376.443H90.136c-2.209,0-4,1.791-4,4v48.255c0,2.209,1.791,4,4,4h55.726c2.209,0,4-1.791,4-4v-48.255
			C149.861,378.234,148.07,376.443,145.861,376.443z"/>
		<path d="M236.806,376.443H181.08c-2.209,0-4,1.791-4,4v48.255c0,2.209,1.791,4,4,4h55.726c2.209,0,4-1.791,4-4v-48.255
			C240.806,378.234,239.015,376.443,236.806,376.443z"/>
		<path d="M327.75,376.443h-55.726c-2.209,0-4,1.791-4,4v48.255c0,2.209,1.791,4,4,4h55.726c2.209,0,4-1.791,4-4v-48.255
			C331.75,378.234,329.959,376.443,327.75,376.443z"/>
		<path d="M418.694,376.443h-55.726c-2.209,0-4,1.791-4,4v48.255c0,2.209,1.791,4,4,4h55.726c2.209,0,4-1.791,4-4v-48.255
			C422.694,378.234,420.903,376.443,418.694,376.443z"/>
	</g>
</g>
<g id="_x31_6">
</g>
<g id="_x31_7">
</g>
<g id="_x31_8">
</g>
<g id="_x31_9">
</g>
<g id="_x32_0">
</g>
<g id="_x32_1">
</g>
<g id="_x32_2">
</g>
<g id="_x32_3">
</g>
<g id="_x32_4">
</g>
<g id="_x32_5">
</g>
<g id="_x32_6">
</g>
<g id="_x32_7">
</g>
<g id="_x32_8">
</g>
<g id="_x32_9">
</g>
<g id="_x33_0">
</g>
<g id="_x33_1">
</g>
<g id="_x33_2">
</g>
<g id="_x33_3">
</g>
<g id="_x33_4">
</g>
<g id="_x33_5">
</g>
<g id="_x33_6">
</g>
<g id="_x33_7">
</g>
<g id="_x33_8">
</g>
<g id="_x33_9">
</g>
<g id="_x34_0">
</g>
<g id="_x34_1">
</g>
<g id="_x34_2">
</g>
<g id="_x34_3">
</g>
<g id="_x34_4">
</g>
<g id="_x34_5">
</g>
<g id="_x34_6">
</g>
<g id="_x34_7">
</g>
<g id="_x34_8">
</g>
<g id="_x34_9">
</g>
<g id="_x35_0">
</g>
<g id="_x35_1">
</g>
<g id="_x35_2">
</g>
<g id="_x35_3">
</g>
<g id="_x35_4">
</g>
<g id="_x35_5">
</g>
<g id="_x35_6">
</g>
<g id="_x35_7">
</g>
<g id="_x35_8">
</g>
<g id="_x35_9">
</g>
<g id="_x36_0">
</g>
<g id="_x36_1">
</g>
<g id="_x36_2">
</g>
<g id="_x36_3">
</g>
<g id="_x36_4">
</g>
<g id="_x36_5">
</g>
<g id="_x36_6">
</g>
<g id="_x36_7">
</g>
<g id="_x36_8">
</g>
<g id="_x36_9">
</g>
<g id="_x37_0">
</g>
</svg>
