<?xml version="1.0" encoding="iso-8859-1"?>
<svg version="1.1" xmlns="http://www.w3.org/2000/svg" fill="#96aabc" xmlns:xlink="http://www.w3.org/1999/xlink" x="0px" y="0px"
	 width="35.097px" height="23.123px" viewBox="0 0 35.097 23.123" style="enable-background:new 0 0 35.097 23.123;"
	 xml:space="preserve">
<g id="c55_speedometer">
	<path style="fill:#96aabc;" d="M28.955,4.229C25.889,1.6,21.908,0,17.547,0C7.856,0,0,7.856,0,17.55
		c0,0.26,0.026,2.686,0.037,2.945v2.628h34.988v-2.437l0.033-0.191c0.011-0.26,0.038-2.686,0.038-2.945
		C35.097,8.948,28.955,4.229,28.955,4.229z M4.269,20.495c-0.014-0.16,0.006-2.49-0.005-2.65h3.6v-1.162H4.517
		c0-0.014-0.253,0.002-0.253,0.002c0.142-3.014,1.29-6.02,3.458-8.391l0.09-0.098l0.162,0.141l2.395,2.397L11.12,9.98L8.576,7.438
		c2.304-2.105,5.225-3.313,8.344-3.453h0.18c0,0,0.075-0.004,0.07,0.045v3.549h0.958V3.985c0.474,0.02,0.946,0.076,1.412,0.148
		c2.678,0.354,5.167,1.51,7.181,3.351l-2.539,2.54l0.705,0.71l2.439-2.44l0.134-0.107l0.116,0.152
		c2.108,2.305,3.314,5.225,3.457,8.344h-3.596v1.162l3.612-0.004c0,0,0.003,2.5-0.009,2.646L4.269,20.495z M22.27,12.108
		c0,0-5.708,1.752-6.801,2.842c-1.095,1.096-1.095,2.867,0.002,3.963c1.091,1.095,2.863,1.095,3.959,0
		C20.521,17.817,22.27,12.108,22.27,12.108z"/>
</g>
<g id="Capa_1">
</g>
</svg>
