<?xml version="1.0" encoding="iso-8859-1"?>
<!-- Generator: Adobe Illustrator 17.1.0, SVG Export Plug-In . SVG Version: 6.00 Build 0)  -->

<svg version="1.1" id="Capa_1" xmlns="http://www.w3.org/2000/svg" xmlns:xlink="http://www.w3.org/1999/xlink" x="0px" y="0px"
	 viewBox="0 0 200 200" fill="#bdbdbd" style="enable-background:new 0 0 200 200;" xml:space="preserve">
<g>
	<path d="M91.258,4.354c-30.846,0-55.942,25.095-55.942,55.942v31.95c0,0.363-0.448,0.975-0.8,1.092
		c-3.025,1.009-5.482,1.883-7.731,2.75c-2.682,1.034-4.705,4.006-4.705,6.914v73.412c0,2.888,2.01,5.863,4.675,6.919
		c20.62,8.171,42.322,12.313,64.503,12.313c22.181,0,43.883-4.143,64.504-12.314c2.664-1.056,4.673-4.03,4.673-6.918v-73.412
		c0-2.908-2.023-5.88-4.706-6.915c-2.25-0.867-4.707-1.741-7.73-2.75c-0.351-0.117-0.799-0.729-0.799-1.092v-31.95
		C147.199,29.449,122.104,4.354,91.258,4.354z M76.021,125.361c0-8.421,6.822-15.236,15.236-15.236
		c8.414,0,15.236,6.814,15.236,15.236c0,5.58-3.147,10.252-7.618,12.9v25.19c0,4.211-3.407,7.618-7.618,7.618
		c-4.211,0-7.618-3.407-7.618-7.618v-25.19C79.168,135.613,76.021,130.941,76.021,125.361z M127.964,60.295v27.567
		c-12.037-2.59-24.386-3.902-36.701-3.903c-12.309,0-24.656,1.312-36.712,3.9l0-27.564c0-20.24,16.466-36.706,36.706-36.706
		S127.964,40.055,127.964,60.295z"/>
</g>
</svg>
