<?xml version="1.0" encoding="utf-8"?>
<svg version="1.1" id="Layer_1" fill="#bdbdbd" xmlns="http://www.w3.org/2000/svg" xmlns:xlink="http://www.w3.org/1999/xlink" x="0px" y="0px"
	 width="96px" height="96px" viewBox="0 0 96 96" enable-background="new 0 0 96 96" xml:space="preserve">
<g>
	<polygon points="47.845,94.901 55.799,78.199 40.201,78.222 	"/>
	<path d="M3.266,1.099v73.2h89.468v-73.2H3.266z M86.924,68.49H9.076V6.909h77.848V68.49z"/>
	<path d="M28.706,35.484l-10.45,10.874v18.348c0,0.516,0.419,0.936,0.936,0.936h12.688c0.517,0,0.936-0.419,0.936-0.936V36.56
		l-2.926-1.076H28.706z"/>
	<path d="M54.549,44.012H41.862c-0.518,0-0.937,0.419-0.937,0.936v19.759c0,0.516,0.419,0.936,0.937,0.936h12.687
		c0.517,0,0.936-0.419,0.936-0.936V44.947C55.485,44.431,55.066,44.012,54.549,44.012z"/>
	<path d="M72.991,23.884l-2.305-1.926l-8.339,9.097v33.651c0,0.516,0.419,0.936,0.936,0.936h12.688c0.517,0,0.936-0.419,0.936-0.936
		V24.194c-0.052,0.03-0.099,0.067-0.153,0.094c-0.485,0.254-1.03,0.388-1.578,0.388C74.378,24.677,73.603,24.396,72.991,23.884z"/>
	<path d="M15.156,44.956c0.491,0,0.982-0.193,1.35-0.575l11.943-12.428l20.897,7.689c0.714,0.261,1.512,0.068,2.027-0.492
		l19.242-20.991l4.503,3.764c0.22,0.184,0.528,0.216,0.782,0.084c0.253-0.133,0.403-0.404,0.377-0.691l-0.976-10.912
		c-0.034-0.39-0.379-0.677-0.768-0.642L63.62,10.736c-0.285,0.025-0.527,0.221-0.613,0.494c-0.028,0.09-0.037,0.183-0.029,0.274
		c0.017,0.184,0.104,0.358,0.251,0.48l4.511,3.771l-18.278,19.94l-20.867-7.678c-0.699-0.255-1.481-0.075-1.997,0.459L13.807,41.787
		c-0.716,0.746-0.693,1.93,0.053,2.646C14.222,44.782,14.689,44.956,15.156,44.956z"/>
</g>
</svg>
