<?xml version="1.0" encoding="UTF-8" standalone="no"?>
<!DOCTYPE svg PUBLIC "-//W3C//DTD SVG 1.1//EN"
 "http://www.w3.org/Graphics/SVG/1.1/DTD/svg11.dtd">
<!-- Generated by graphviz version 2.26.3 (20100126.1600)
 -->
<!-- Title: controllers_diagram Pages: 1 -->
<svg width="1313pt" height="1333pt"
 viewBox="0.00 0.00 1313.00 1333.00" xmlns="http://www.w3.org/2000/svg" xmlns:xlink="http://www.w3.org/1999/xlink">
<g id="graph1" class="graph" transform="scale(1 1) rotate(0) translate(4 1329)">
<title>controllers_diagram</title>
<polygon fill="white" stroke="white" points="-4,5 -4,-1329 1310,-1329 1310,5 -4,5"/>
<!-- _diagram_info -->
<g id="node1" class="node"><title>_diagram_info</title>
<text text-anchor="start" x="159" y="-978.3" font-family="Times Roman,serif" font-size="13.00">Controllers diagram</text>
<text text-anchor="start" x="159" y="-961.3" font-family="Times Roman,serif" font-size="13.00">Date: Dec 28 2014 &#45; 13:25</text>
<text text-anchor="start" x="159" y="-944.3" font-family="Times Roman,serif" font-size="13.00">Migration version: 20130711130450</text>
<text text-anchor="start" x="159" y="-927.3" font-family="Times Roman,serif" font-size="13.00">Generated by RailRoady 1.2.0</text>
<text text-anchor="start" x="159" y="-910.3" font-family="Times Roman,serif" font-size="13.00">http://railroady.prestonlee.com</text>
</g>
<!-- SurveysController -->
<g id="node2" class="node"><title>SurveysController</title>
<polyline fill="none" stroke="black" points="763,-451.5 986,-451.5 "/>
<path fill="none" stroke="black" d="M986,-451.5C992,-451.5 998,-457.5 998,-463.5"/>
<polyline fill="none" stroke="black" points="998,-463.5 998,-883.5 "/>
<path fill="none" stroke="black" d="M998,-883.5C998,-889.5 992,-895.5 986,-895.5"/>
<polyline fill="none" stroke="black" points="986,-895.5 763,-895.5 "/>
<path fill="none" stroke="black" d="M763,-895.5C757,-895.5 751,-889.5 751,-883.5"/>
<polyline fill="none" stroke="black" points="751,-883.5 751,-463.5 "/>
<path fill="none" stroke="black" d="M751,-463.5C751,-457.5 757,-451.5 763,-451.5"/>
<text text-anchor="middle" x="874.5" y="-878.9" font-family="Times Roman,serif" font-size="14.00">SurveysController</text>
<polyline fill="none" stroke="black" points="751,-869.5 998,-869.5 "/>
<text text-anchor="start" x="759" y="-852.9" font-family="Times Roman,serif" font-size="14.00">_callback_after_123</text>
<text text-anchor="start" x="759" y="-834.9" font-family="Times Roman,serif" font-size="14.00">_callback_after_129</text>
<text text-anchor="start" x="759" y="-816.9" font-family="Times Roman,serif" font-size="14.00">_callback_after_135</text>
<text text-anchor="start" x="759" y="-798.9" font-family="Times Roman,serif" font-size="14.00">_callback_after_141</text>
<text text-anchor="start" x="759" y="-780.9" font-family="Times Roman,serif" font-size="14.00">_callback_before_117</text>
<text text-anchor="start" x="759" y="-762.9" font-family="Times Roman,serif" font-size="14.00">_callback_before_121</text>
<text text-anchor="start" x="759" y="-744.9" font-family="Times Roman,serif" font-size="14.00">_one_time_conditions_valid_118?</text>
<text text-anchor="start" x="759" y="-726.9" font-family="Times Roman,serif" font-size="14.00">_one_time_conditions_valid_122?</text>
<text text-anchor="start" x="759" y="-708.9" font-family="Times Roman,serif" font-size="14.00">_one_time_conditions_valid_126?</text>
<text text-anchor="start" x="759" y="-690.9" font-family="Times Roman,serif" font-size="14.00">_one_time_conditions_valid_132?</text>
<text text-anchor="start" x="759" y="-672.9" font-family="Times Roman,serif" font-size="14.00">_one_time_conditions_valid_138?</text>
<text text-anchor="start" x="759" y="-654.9" font-family="Times Roman,serif" font-size="14.00">_one_time_conditions_valid_144?</text>
<text text-anchor="start" x="759" y="-636.9" font-family="Times Roman,serif" font-size="14.00">archive</text>
<text text-anchor="start" x="759" y="-618.9" font-family="Times Roman,serif" font-size="14.00">build</text>
<text text-anchor="start" x="759" y="-600.9" font-family="Times Roman,serif" font-size="14.00">create</text>
<text text-anchor="start" x="759" y="-582.9" font-family="Times Roman,serif" font-size="14.00">destroy</text>
<text text-anchor="start" x="759" y="-564.9" font-family="Times Roman,serif" font-size="14.00">finalize</text>
<text text-anchor="start" x="759" y="-546.9" font-family="Times Roman,serif" font-size="14.00">index</text>
<text text-anchor="start" x="759" y="-528.9" font-family="Times Roman,serif" font-size="14.00">report</text>
<polyline fill="none" stroke="black" points="751,-519.5 998,-519.5 "/>
<polyline fill="none" stroke="black" points="751,-495.5 998,-495.5 "/>
<text text-anchor="start" x="759" y="-478.9" font-family="Times Roman,serif" font-size="14.00">_layout</text>
<text text-anchor="start" x="759" y="-460.9" font-family="Times Roman,serif" font-size="14.00">redirect_to_https</text>
</g>
<!-- SurveyDashboardController -->
<g id="node3" class="node"><title>SurveyDashboardController</title>
<polyline fill="none" stroke="black" points="488,-176.5 673,-176.5 "/>
<path fill="none" stroke="black" d="M673,-176.5C679,-176.5 685,-182.5 685,-188.5"/>
<polyline fill="none" stroke="black" points="685,-188.5 685,-284.5 "/>
<path fill="none" stroke="black" d="M685,-284.5C685,-290.5 679,-296.5 673,-296.5"/>
<polyline fill="none" stroke="black" points="673,-296.5 488,-296.5 "/>
<path fill="none" stroke="black" d="M488,-296.5C482,-296.5 476,-290.5 476,-284.5"/>
<polyline fill="none" stroke="black" points="476,-284.5 476,-188.5 "/>
<path fill="none" stroke="black" d="M476,-188.5C476,-182.5 482,-176.5 488,-176.5"/>
<text text-anchor="middle" x="580.5" y="-279.9" font-family="Times Roman,serif" font-size="14.00">SurveyDashboardController</text>
<polyline fill="none" stroke="black" points="476,-270.5 685,-270.5 "/>
<text text-anchor="start" x="484" y="-253.9" font-family="Times Roman,serif" font-size="14.00">index</text>
<text text-anchor="start" x="484" y="-235.9" font-family="Times Roman,serif" font-size="14.00">show</text>
<polyline fill="none" stroke="black" points="476,-226.5 685,-226.5 "/>
<polyline fill="none" stroke="black" points="476,-202.5 685,-202.5 "/>
<text text-anchor="start" x="484" y="-185.9" font-family="Times Roman,serif" font-size="14.00">_layout</text>
</g>
<!-- RecordsController -->
<g id="node4" class="node"><title>RecordsController</title>
<polyline fill="none" stroke="black" points="788,-1126.5 903,-1126.5 "/>
<path fill="none" stroke="black" d="M903,-1126.5C909,-1126.5 915,-1132.5 915,-1138.5"/>
<polyline fill="none" stroke="black" points="915,-1138.5 915,-1234.5 "/>
<path fill="none" stroke="black" d="M915,-1234.5C915,-1240.5 909,-1246.5 903,-1246.5"/>
<polyline fill="none" stroke="black" points="903,-1246.5 788,-1246.5 "/>
<path fill="none" stroke="black" d="M788,-1246.5C782,-1246.5 776,-1240.5 776,-1234.5"/>
<polyline fill="none" stroke="black" points="776,-1234.5 776,-1138.5 "/>
<path fill="none" stroke="black" d="M776,-1138.5C776,-1132.5 782,-1126.5 788,-1126.5"/>
<text text-anchor="middle" x="845.5" y="-1229.9" font-family="Times Roman,serif" font-size="14.00">RecordsController</text>
<polyline fill="none" stroke="black" points="776,-1220.5 915,-1220.5 "/>
<text text-anchor="start" x="784" y="-1203.9" font-family="Times Roman,serif" font-size="14.00">create</text>
<text text-anchor="start" x="784" y="-1185.9" font-family="Times Roman,serif" font-size="14.00">destroy</text>
<polyline fill="none" stroke="black" points="776,-1176.5 915,-1176.5 "/>
<polyline fill="none" stroke="black" points="776,-1152.5 915,-1152.5 "/>
<text text-anchor="start" x="784" y="-1135.9" font-family="Times Roman,serif" font-size="14.00">_layout</text>
</g>
<!-- Api::V1::SurveysController -->
<g id="node5" class="node"><title>Api::V1::SurveysController</title>
<polyline fill="none" stroke="black" points="188,-476.5 411,-476.5 "/>
<path fill="none" stroke="black" d="M411,-476.5C417,-476.5 423,-482.5 423,-488.5"/>
<polyline fill="none" stroke="black" points="423,-488.5 423,-782.5 "/>
<path fill="none" stroke="black" d="M423,-782.5C423,-788.5 417,-794.5 411,-794.5"/>
<polyline fill="none" stroke="black" points="411,-794.5 188,-794.5 "/>
<path fill="none" stroke="black" d="M188,-794.5C182,-794.5 176,-788.5 176,-782.5"/>
<polyline fill="none" stroke="black" points="176,-782.5 176,-488.5 "/>
<path fill="none" stroke="black" d="M176,-488.5C176,-482.5 182,-476.5 188,-476.5"/>
<text text-anchor="middle" x="299.5" y="-777.9" font-family="Times Roman,serif" font-size="14.00">Api::V1::SurveysController</text>
<polyline fill="none" stroke="black" points="176,-768.5 423,-768.5 "/>
<text text-anchor="start" x="184" y="-751.9" font-family="Times Roman,serif" font-size="14.00">_callback_after_171</text>
<text text-anchor="start" x="184" y="-733.9" font-family="Times Roman,serif" font-size="14.00">_callback_after_177</text>
<text text-anchor="start" x="184" y="-715.9" font-family="Times Roman,serif" font-size="14.00">_callback_before_167</text>
<text text-anchor="start" x="184" y="-697.9" font-family="Times Roman,serif" font-size="14.00">_one_time_conditions_valid_168?</text>
<text text-anchor="start" x="184" y="-679.9" font-family="Times Roman,serif" font-size="14.00">_one_time_conditions_valid_174?</text>
<text text-anchor="start" x="184" y="-661.9" font-family="Times Roman,serif" font-size="14.00">_one_time_conditions_valid_180?</text>
<text text-anchor="start" x="184" y="-643.9" font-family="Times Roman,serif" font-size="14.00">duplicate</text>
<text text-anchor="start" x="184" y="-625.9" font-family="Times Roman,serif" font-size="14.00">identifier_questions</text>
<text text-anchor="start" x="184" y="-607.9" font-family="Times Roman,serif" font-size="14.00">questions_count</text>
<text text-anchor="start" x="184" y="-589.9" font-family="Times Roman,serif" font-size="14.00">show</text>
<text text-anchor="start" x="184" y="-571.9" font-family="Times Roman,serif" font-size="14.00">update</text>
<polyline fill="none" stroke="black" points="176,-562.5 423,-562.5 "/>
<polyline fill="none" stroke="black" points="176,-538.5 423,-538.5 "/>
<text text-anchor="start" x="184" y="-521.9" font-family="Times Roman,serif" font-size="14.00">_layout</text>
<text text-anchor="start" x="184" y="-503.9" font-family="Times Roman,serif" font-size="14.00">extra_survey_ids</text>
<text text-anchor="start" x="184" y="-485.9" font-family="Times Roman,serif" font-size="14.00">survey_finalized?</text>
</g>
<!-- Api::V1::JobsController -->
<g id="node6" class="node"><title>Api::V1::JobsController</title>
<polyline fill="none" stroke="black" points="913,-1.5 1061,-1.5 "/>
<path fill="none" stroke="black" d="M1061,-1.5C1067,-1.5 1073,-7.5 1073,-13.5"/>
<polyline fill="none" stroke="black" points="1073,-13.5 1073,-91.5 "/>
<path fill="none" stroke="black" d="M1073,-91.5C1073,-97.5 1067,-103.5 1061,-103.5"/>
<polyline fill="none" stroke="black" points="1061,-103.5 913,-103.5 "/>
<path fill="none" stroke="black" d="M913,-103.5C907,-103.5 901,-97.5 901,-91.5"/>
<polyline fill="none" stroke="black" points="901,-91.5 901,-13.5 "/>
<path fill="none" stroke="black" d="M901,-13.5C901,-7.5 907,-1.5 913,-1.5"/>
<text text-anchor="middle" x="987" y="-86.9" font-family="Times Roman,serif" font-size="14.00">Api::V1::JobsController</text>
<polyline fill="none" stroke="black" points="901,-77.5 1073,-77.5 "/>
<text text-anchor="start" x="909" y="-60.9" font-family="Times Roman,serif" font-size="14.00">alive</text>
<polyline fill="none" stroke="black" points="901,-51.5 1073,-51.5 "/>
<polyline fill="none" stroke="black" points="901,-27.5 1073,-27.5 "/>
<text text-anchor="start" x="909" y="-10.9" font-family="Times Roman,serif" font-size="14.00">_layout</text>
</g>
<!-- Api::V1::DeepSurveysController -->
<g id="node7" class="node"><title>Api::V1::DeepSurveysController</title>
<polyline fill="none" stroke="black" points="1063,-651.5 1286,-651.5 "/>
<path fill="none" stroke="black" d="M1286,-651.5C1292,-651.5 1298,-657.5 1298,-663.5"/>
<polyline fill="none" stroke="black" points="1298,-663.5 1298,-795.5 "/>
<path fill="none" stroke="black" d="M1298,-795.5C1298,-801.5 1292,-807.5 1286,-807.5"/>
<polyline fill="none" stroke="black" points="1286,-807.5 1063,-807.5 "/>
<path fill="none" stroke="black" d="M1063,-807.5C1057,-807.5 1051,-801.5 1051,-795.5"/>
<polyline fill="none" stroke="black" points="1051,-795.5 1051,-663.5 "/>
<path fill="none" stroke="black" d="M1051,-663.5C1051,-657.5 1057,-651.5 1063,-651.5"/>
<text text-anchor="middle" x="1174.5" y="-790.9" font-family="Times Roman,serif" font-size="14.00">Api::V1::DeepSurveysController</text>
<polyline fill="none" stroke="black" points="1051,-781.5 1298,-781.5 "/>
<text text-anchor="start" x="1059" y="-764.9" font-family="Times Roman,serif" font-size="14.00">_callback_before_183</text>
<text text-anchor="start" x="1059" y="-746.9" font-family="Times Roman,serif" font-size="14.00">_one_time_conditions_valid_184?</text>
<text text-anchor="start" x="1059" y="-728.9" font-family="Times Roman,serif" font-size="14.00">index</text>
<polyline fill="none" stroke="black" points="1051,-719.5 1298,-719.5 "/>
<polyline fill="none" stroke="black" points="1051,-695.5 1298,-695.5 "/>
<text text-anchor="start" x="1059" y="-678.9" font-family="Times Roman,serif" font-size="14.00">_layout</text>
<text text-anchor="start" x="1059" y="-660.9" font-family="Times Roman,serif" font-size="14.00">extra_survey_ids</text>
</g>
<!-- Api::V1::RecordsController -->
<g id="node8" class="node"><title>Api::V1::RecordsController</title>
<polyline fill="none" stroke="black" points="63,-51.5 236,-51.5 "/>
<path fill="none" stroke="black" d="M236,-51.5C242,-51.5 248,-57.5 248,-63.5"/>
<polyline fill="none" stroke="black" points="248,-63.5 248,-177.5 "/>
<path fill="none" stroke="black" d="M248,-177.5C248,-183.5 242,-189.5 236,-189.5"/>
<polyline fill="none" stroke="black" points="236,-189.5 63,-189.5 "/>
<path fill="none" stroke="black" d="M63,-189.5C57,-189.5 51,-183.5 51,-177.5"/>
<polyline fill="none" stroke="black" points="51,-177.5 51,-63.5 "/>
<path fill="none" stroke="black" d="M51,-63.5C51,-57.5 57,-51.5 63,-51.5"/>
<text text-anchor="middle" x="149.5" y="-172.9" font-family="Times Roman,serif" font-size="14.00">Api::V1::RecordsController</text>
<polyline fill="none" stroke="black" points="51,-163.5 248,-163.5 "/>
<text text-anchor="start" x="59" y="-146.9" font-family="Times Roman,serif" font-size="14.00">create</text>
<text text-anchor="start" x="59" y="-128.9" font-family="Times Roman,serif" font-size="14.00">ids_for_response</text>
<text text-anchor="start" x="59" y="-110.9" font-family="Times Roman,serif" font-size="14.00">update</text>
<polyline fill="none" stroke="black" points="51,-101.5 248,-101.5 "/>
<polyline fill="none" stroke="black" points="51,-77.5 248,-77.5 "/>
<text text-anchor="start" x="59" y="-60.9" font-family="Times Roman,serif" font-size="14.00">_layout</text>
</g>
<!-- Api::V1::OrganizationsController -->
<g id="node9" class="node"><title>Api::V1::OrganizationsController</title>
<polyline fill="none" stroke="black" points="613,-26.5 830,-26.5 "/>
<path fill="none" stroke="black" d="M830,-26.5C836,-26.5 842,-32.5 842,-38.5"/>
<polyline fill="none" stroke="black" points="842,-38.5 842,-116.5 "/>
<path fill="none" stroke="black" d="M842,-116.5C842,-122.5 836,-128.5 830,-128.5"/>
<polyline fill="none" stroke="black" points="830,-128.5 613,-128.5 "/>
<path fill="none" stroke="black" d="M613,-128.5C607,-128.5 601,-122.5 601,-116.5"/>
<polyline fill="none" stroke="black" points="601,-116.5 601,-38.5 "/>
<path fill="none" stroke="black" d="M601,-38.5C601,-32.5 607,-26.5 613,-26.5"/>
<text text-anchor="middle" x="721.5" y="-111.9" font-family="Times Roman,serif" font-size="14.00">Api::V1::OrganizationsController</text>
<polyline fill="none" stroke="black" points="601,-102.5 842,-102.5 "/>
<text text-anchor="start" x="609" y="-85.9" font-family="Times Roman,serif" font-size="14.00">destroy</text>
<polyline fill="none" stroke="black" points="601,-76.5 842,-76.5 "/>
<polyline fill="none" stroke="black" points="601,-52.5 842,-52.5 "/>
<text text-anchor="start" x="609" y="-35.9" font-family="Times Roman,serif" font-size="14.00">_layout</text>
</g>
<!-- Api::V1::QuestionsController -->
<g id="node10" class="node"><title>Api::V1::QuestionsController</title>
<polyline fill="none" stroke="black" points="763,-176.5 986,-176.5 "/>
<path fill="none" stroke="black" d="M986,-176.5C992,-176.5 998,-182.5 998,-188.5"/>
<polyline fill="none" stroke="black" points="998,-188.5 998,-392.5 "/>
<path fill="none" stroke="black" d="M998,-392.5C998,-398.5 992,-404.5 986,-404.5"/>
<polyline fill="none" stroke="black" points="986,-404.5 763,-404.5 "/>
<path fill="none" stroke="black" d="M763,-404.5C757,-404.5 751,-398.5 751,-392.5"/>
<polyline fill="none" stroke="black" points="751,-392.5 751,-188.5 "/>
<path fill="none" stroke="black" d="M751,-188.5C751,-182.5 757,-176.5 763,-176.5"/>
<text text-anchor="middle" x="874.5" y="-387.9" font-family="Times Roman,serif" font-size="14.00">Api::V1::QuestionsController</text>
<polyline fill="none" stroke="black" points="751,-378.5 998,-378.5 "/>
<text text-anchor="start" x="759" y="-361.9" font-family="Times Roman,serif" font-size="14.00">_one_time_conditions_valid_284?</text>
<text text-anchor="start" x="759" y="-343.9" font-family="Times Roman,serif" font-size="14.00">create</text>
<text text-anchor="start" x="759" y="-325.9" font-family="Times Roman,serif" font-size="14.00">destroy</text>
<text text-anchor="start" x="759" y="-307.9" font-family="Times Roman,serif" font-size="14.00">duplicate</text>
<text text-anchor="start" x="759" y="-289.9" font-family="Times Roman,serif" font-size="14.00">image_upload</text>
<text text-anchor="start" x="759" y="-271.9" font-family="Times Roman,serif" font-size="14.00">show</text>
<text text-anchor="start" x="759" y="-253.9" font-family="Times Roman,serif" font-size="14.00">update</text>
<polyline fill="none" stroke="black" points="751,-244.5 998,-244.5 "/>
<polyline fill="none" stroke="black" points="751,-220.5 998,-220.5 "/>
<text text-anchor="start" x="759" y="-203.9" font-family="Times Roman,serif" font-size="14.00">_layout</text>
<text text-anchor="start" x="759" y="-185.9" font-family="Times Roman,serif" font-size="14.00">dont_cache</text>
</g>
<!-- Api::V1::OptionsController -->
<g id="node11" class="node"><title>Api::V1::OptionsController</title>
<polyline fill="none" stroke="black" points="1063,-426.5 1286,-426.5 "/>
<path fill="none" stroke="black" d="M1286,-426.5C1292,-426.5 1298,-432.5 1298,-438.5"/>
<polyline fill="none" stroke="black" points="1298,-438.5 1298,-588.5 "/>
<path fill="none" stroke="black" d="M1298,-588.5C1298,-594.5 1292,-600.5 1286,-600.5"/>
<polyline fill="none" stroke="black" points="1286,-600.5 1063,-600.5 "/>
<path fill="none" stroke="black" d="M1063,-600.5C1057,-600.5 1051,-594.5 1051,-588.5"/>
<polyline fill="none" stroke="black" points="1051,-588.5 1051,-438.5 "/>
<path fill="none" stroke="black" d="M1051,-438.5C1051,-432.5 1057,-426.5 1063,-426.5"/>
<text text-anchor="middle" x="1174.5" y="-583.9" font-family="Times Roman,serif" font-size="14.00">Api::V1::OptionsController</text>
<polyline fill="none" stroke="black" points="1051,-574.5 1298,-574.5 "/>
<text text-anchor="start" x="1059" y="-557.9" font-family="Times Roman,serif" font-size="14.00">_one_time_conditions_valid_286?</text>
<text text-anchor="start" x="1059" y="-539.9" font-family="Times Roman,serif" font-size="14.00">create</text>
<text text-anchor="start" x="1059" y="-521.9" font-family="Times Roman,serif" font-size="14.00">destroy</text>
<text text-anchor="start" x="1059" y="-503.9" font-family="Times Roman,serif" font-size="14.00">update</text>
<polyline fill="none" stroke="black" points="1051,-494.5 1298,-494.5 "/>
<polyline fill="none" stroke="black" points="1051,-470.5 1298,-470.5 "/>
<text text-anchor="start" x="1059" y="-453.9" font-family="Times Roman,serif" font-size="14.00">_layout</text>
<text text-anchor="start" x="1059" y="-435.9" font-family="Times Roman,serif" font-size="14.00">dont_cache</text>
</g>
<!-- Api::V1::AuthController -->
<g id="node12" class="node"><title>Api::V1::AuthController</title>
<polyline fill="none" stroke="black" points="1138,-1.5 1292,-1.5 "/>
<path fill="none" stroke="black" d="M1292,-1.5C1298,-1.5 1304,-7.5 1304,-13.5"/>
<polyline fill="none" stroke="black" points="1304,-13.5 1304,-91.5 "/>
<path fill="none" stroke="black" d="M1304,-91.5C1304,-97.5 1298,-103.5 1292,-103.5"/>
<polyline fill="none" stroke="black" points="1292,-103.5 1138,-103.5 "/>
<path fill="none" stroke="black" d="M1138,-103.5C1132,-103.5 1126,-97.5 1126,-91.5"/>
<polyline fill="none" stroke="black" points="1126,-91.5 1126,-13.5 "/>
<path fill="none" stroke="black" d="M1126,-13.5C1126,-7.5 1132,-1.5 1138,-1.5"/>
<text text-anchor="middle" x="1215" y="-86.9" font-family="Times Roman,serif" font-size="14.00">Api::V1::AuthController</text>
<polyline fill="none" stroke="black" points="1126,-77.5 1304,-77.5 "/>
<text text-anchor="start" x="1134" y="-60.9" font-family="Times Roman,serif" font-size="14.00">create</text>
<polyline fill="none" stroke="black" points="1126,-51.5 1304,-51.5 "/>
<polyline fill="none" stroke="black" points="1126,-27.5 1304,-27.5 "/>
<text text-anchor="start" x="1134" y="-10.9" font-family="Times Roman,serif" font-size="14.00">_layout</text>
</g>
<!-- Api::V1::CategoriesController -->
<g id="node13" class="node"><title>Api::V1::CategoriesController</title>
<polyline fill="none" stroke="black" points="188,-226.5 411,-226.5 "/>
<path fill="none" stroke="black" d="M411,-226.5C417,-226.5 423,-232.5 423,-238.5"/>
<polyline fill="none" stroke="black" points="423,-238.5 423,-424.5 "/>
<path fill="none" stroke="black" d="M423,-424.5C423,-430.5 417,-436.5 411,-436.5"/>
<polyline fill="none" stroke="black" points="411,-436.5 188,-436.5 "/>
<path fill="none" stroke="black" d="M188,-436.5C182,-436.5 176,-430.5 176,-424.5"/>
<polyline fill="none" stroke="black" points="176,-424.5 176,-238.5 "/>
<path fill="none" stroke="black" d="M176,-238.5C176,-232.5 182,-226.5 188,-226.5"/>
<text text-anchor="middle" x="299.5" y="-419.9" font-family="Times Roman,serif" font-size="14.00">Api::V1::CategoriesController</text>
<polyline fill="none" stroke="black" points="176,-410.5 423,-410.5 "/>
<text text-anchor="start" x="184" y="-393.9" font-family="Times Roman,serif" font-size="14.00">_one_time_conditions_valid_326?</text>
<text text-anchor="start" x="184" y="-375.9" font-family="Times Roman,serif" font-size="14.00">create</text>
<text text-anchor="start" x="184" y="-357.9" font-family="Times Roman,serif" font-size="14.00">destroy</text>
<text text-anchor="start" x="184" y="-339.9" font-family="Times Roman,serif" font-size="14.00">duplicate</text>
<text text-anchor="start" x="184" y="-321.9" font-family="Times Roman,serif" font-size="14.00">show</text>
<text text-anchor="start" x="184" y="-303.9" font-family="Times Roman,serif" font-size="14.00">update</text>
<polyline fill="none" stroke="black" points="176,-294.5 423,-294.5 "/>
<polyline fill="none" stroke="black" points="176,-270.5 423,-270.5 "/>
<text text-anchor="start" x="184" y="-253.9" font-family="Times Roman,serif" font-size="14.00">_layout</text>
<text text-anchor="start" x="184" y="-235.9" font-family="Times Roman,serif" font-size="14.00">dont_cache</text>
</g>
<!-- Api::V1::ResponsesController -->
<g id="node14" class="node"><title>Api::V1::ResponsesController</title>
<polyline fill="none" stroke="black" points="963,-951.5 1186,-951.5 "/>
<path fill="none" stroke="black" d="M1186,-951.5C1192,-951.5 1198,-957.5 1198,-963.5"/>
<polyline fill="none" stroke="black" points="1198,-963.5 1198,-1311.5 "/>
<path fill="none" stroke="black" d="M1198,-1311.5C1198,-1317.5 1192,-1323.5 1186,-1323.5"/>
<polyline fill="none" stroke="black" points="1186,-1323.5 963,-1323.5 "/>
<path fill="none" stroke="black" d="M963,-1323.5C957,-1323.5 951,-1317.5 951,-1311.5"/>
<polyline fill="none" stroke="black" points="951,-1311.5 951,-963.5 "/>
<path fill="none" stroke="black" d="M951,-963.5C951,-957.5 957,-951.5 963,-951.5"/>
<text text-anchor="middle" x="1074.5" y="-1306.9" font-family="Times Roman,serif" font-size="14.00">Api::V1::ResponsesController</text>
<polyline fill="none" stroke="black" points="951,-1297.5 1198,-1297.5 "/>
<text text-anchor="start" x="959" y="-1280.9" font-family="Times Roman,serif" font-size="14.00">_callback_before_375</text>
<text text-anchor="start" x="959" y="-1262.9" font-family="Times Roman,serif" font-size="14.00">_callback_before_379</text>
<text text-anchor="start" x="959" y="-1244.9" font-family="Times Roman,serif" font-size="14.00">_callback_before_383</text>
<text text-anchor="start" x="959" y="-1226.9" font-family="Times Roman,serif" font-size="14.00">_one_time_conditions_valid_376?</text>
<text text-anchor="start" x="959" y="-1208.9" font-family="Times Roman,serif" font-size="14.00">_one_time_conditions_valid_380?</text>
<text text-anchor="start" x="959" y="-1190.9" font-family="Times Roman,serif" font-size="14.00">_one_time_conditions_valid_384?</text>
<text text-anchor="start" x="959" y="-1172.9" font-family="Times Roman,serif" font-size="14.00">_one_time_conditions_valid_386?</text>
<text text-anchor="start" x="959" y="-1154.9" font-family="Times Roman,serif" font-size="14.00">_one_time_conditions_valid_390?</text>
<text text-anchor="start" x="959" y="-1136.9" font-family="Times Roman,serif" font-size="14.00">_one_time_conditions_valid_394?</text>
<text text-anchor="start" x="959" y="-1118.9" font-family="Times Roman,serif" font-size="14.00">count</text>
<text text-anchor="start" x="959" y="-1100.9" font-family="Times Roman,serif" font-size="14.00">create</text>
<text text-anchor="start" x="959" y="-1082.9" font-family="Times Roman,serif" font-size="14.00">show</text>
<text text-anchor="start" x="959" y="-1064.9" font-family="Times Roman,serif" font-size="14.00">update</text>
<polyline fill="none" stroke="black" points="951,-1055.5 1198,-1055.5 "/>
<polyline fill="none" stroke="black" points="951,-1031.5 1198,-1031.5 "/>
<text text-anchor="start" x="959" y="-1014.9" font-family="Times Roman,serif" font-size="14.00">_layout</text>
<text text-anchor="start" x="959" y="-996.9" font-family="Times Roman,serif" font-size="14.00">convert_to_datetime</text>
<text text-anchor="start" x="959" y="-978.9" font-family="Times Roman,serif" font-size="14.00">decode_base64_images</text>
<text text-anchor="start" x="959" y="-960.9" font-family="Times Roman,serif" font-size="14.00">require_response_to_not_exist</text>
</g>
<!-- Api::V1::AuditsController -->
<g id="node15" class="node"><title>Api::V1::AuditsController</title>
<polyline fill="none" stroke="black" points="313,-1.5 477,-1.5 "/>
<path fill="none" stroke="black" d="M477,-1.5C483,-1.5 489,-7.5 489,-13.5"/>
<polyline fill="none" stroke="black" points="489,-13.5 489,-109.5 "/>
<path fill="none" stroke="black" d="M489,-109.5C489,-115.5 483,-121.5 477,-121.5"/>
<polyline fill="none" stroke="black" points="477,-121.5 313,-121.5 "/>
<path fill="none" stroke="black" d="M313,-121.5C307,-121.5 301,-115.5 301,-109.5"/>
<polyline fill="none" stroke="black" points="301,-109.5 301,-13.5 "/>
<path fill="none" stroke="black" d="M301,-13.5C301,-7.5 307,-1.5 313,-1.5"/>
<text text-anchor="middle" x="395" y="-104.9" font-family="Times Roman,serif" font-size="14.00">Api::V1::AuditsController</text>
<polyline fill="none" stroke="black" points="301,-95.5 489,-95.5 "/>
<text text-anchor="start" x="309" y="-78.9" font-family="Times Roman,serif" font-size="14.00">create</text>
<text text-anchor="start" x="309" y="-60.9" font-family="Times Roman,serif" font-size="14.00">update</text>
<polyline fill="none" stroke="black" points="301,-51.5 489,-51.5 "/>
<polyline fill="none" stroke="black" points="301,-27.5 489,-27.5 "/>
<text text-anchor="start" x="309" y="-10.9" font-family="Times Roman,serif" font-size="14.00">_layout</text>
</g>
<!-- PagesController -->
<g id="node16" class="node"><title>PagesController</title>
<polyline fill="none" stroke="black" points="13,-726.5 114,-726.5 "/>
<path fill="none" stroke="black" d="M114,-726.5C120,-726.5 126,-732.5 126,-738.5"/>
<polyline fill="none" stroke="black" points="126,-738.5 126,-834.5 "/>
<path fill="none" stroke="black" d="M126,-834.5C126,-840.5 120,-846.5 114,-846.5"/>
<polyline fill="none" stroke="black" points="114,-846.5 13,-846.5 "/>
<path fill="none" stroke="black" d="M13,-846.5C7,-846.5 1,-840.5 1,-834.5"/>
<polyline fill="none" stroke="black" points="1,-834.5 1,-738.5 "/>
<path fill="none" stroke="black" d="M1,-738.5C1,-732.5 7,-726.5 13,-726.5"/>
<text text-anchor="middle" x="63.5" y="-829.9" font-family="Times Roman,serif" font-size="14.00">PagesController</text>
<polyline fill="none" stroke="black" points="1,-820.5 126,-820.5 "/>
<text text-anchor="start" x="9" y="-803.9" font-family="Times Roman,serif" font-size="14.00">dummy</text>
<text text-anchor="start" x="9" y="-785.9" font-family="Times Roman,serif" font-size="14.00">index</text>
<polyline fill="none" stroke="black" points="1,-776.5 126,-776.5 "/>
<polyline fill="none" stroke="black" points="1,-752.5 126,-752.5 "/>
<text text-anchor="start" x="9" y="-735.9" font-family="Times Roman,serif" font-size="14.00">_layout</text>
</g>
<!-- ApplicationController -->
<g id="node17" class="node"><title>ApplicationController</title>
<polyline fill="none" stroke="black" points="488,-351.5 702,-351.5 "/>
<path fill="none" stroke="black" d="M702,-351.5C708,-351.5 714,-357.5 714,-363.5"/>
<polyline fill="none" stroke="black" points="714,-363.5 714,-801.5 "/>
<path fill="none" stroke="black" d="M714,-801.5C714,-807.5 708,-813.5 702,-813.5"/>
<polyline fill="none" stroke="black" points="702,-813.5 488,-813.5 "/>
<path fill="none" stroke="black" d="M488,-813.5C482,-813.5 476,-807.5 476,-801.5"/>
<polyline fill="none" stroke="black" points="476,-801.5 476,-363.5 "/>
<path fill="none" stroke="black" d="M476,-363.5C476,-357.5 482,-351.5 488,-351.5"/>
<text text-anchor="middle" x="595" y="-796.9" font-family="Times Roman,serif" font-size="14.00">ApplicationController</text>
<polyline fill="none" stroke="black" points="476,-787.5 714,-787.5 "/>
<text text-anchor="start" x="484" y="-770.9" font-family="Times Roman,serif" font-size="14.00">_one_time_conditions_valid_24?</text>
<text text-anchor="start" x="484" y="-752.9" font-family="Times Roman,serif" font-size="14.00">_one_time_conditions_valid_26?</text>
<text text-anchor="start" x="484" y="-734.9" font-family="Times Roman,serif" font-size="14.00">_one_time_conditions_valid_28?</text>
<text text-anchor="start" x="484" y="-716.9" font-family="Times Roman,serif" font-size="14.00">access_token</text>
<text text-anchor="start" x="484" y="-698.9" font-family="Times Roman,serif" font-size="14.00">current_ability</text>
<text text-anchor="start" x="484" y="-680.9" font-family="Times Roman,serif" font-size="14.00">current_user</text>
<text text-anchor="start" x="484" y="-662.9" font-family="Times Roman,serif" font-size="14.00">current_user_info</text>
<text text-anchor="start" x="484" y="-644.9" font-family="Times Roman,serif" font-size="14.00">current_user_org</text>
<text text-anchor="start" x="484" y="-626.9" font-family="Times Roman,serif" font-size="14.00">current_user_org_type</text>
<text text-anchor="start" x="484" y="-608.9" font-family="Times Roman,serif" font-size="14.00">current_username</text>
<text text-anchor="start" x="484" y="-590.9" font-family="Times Roman,serif" font-size="14.00">default_url_options</text>
<text text-anchor="start" x="484" y="-572.9" font-family="Times Roman,serif" font-size="14.00">new_user_path</text>
<text text-anchor="start" x="484" y="-554.9" font-family="Times Roman,serif" font-size="14.00">oauth_client</text>
<text text-anchor="start" x="484" y="-536.9" font-family="Times Roman,serif" font-size="14.00">register_path</text>
<text text-anchor="start" x="484" y="-518.9" font-family="Times Roman,serif" font-size="14.00">send_to_mixpanel</text>
<text text-anchor="start" x="484" y="-500.9" font-family="Times Roman,serif" font-size="14.00">server_url</text>
<text text-anchor="start" x="484" y="-482.9" font-family="Times Roman,serif" font-size="14.00">session_token</text>
<text text-anchor="start" x="484" y="-464.9" font-family="Times Roman,serif" font-size="14.00">signed_in_as_cso_admin?</text>
<text text-anchor="start" x="484" y="-446.9" font-family="Times Roman,serif" font-size="14.00">user_currently_logged_in?</text>
<polyline fill="none" stroke="black" points="476,-437.5 714,-437.5 "/>
<polyline fill="none" stroke="black" points="476,-413.5 714,-413.5 "/>
<text text-anchor="start" x="484" y="-396.9" font-family="Times Roman,serif" font-size="14.00">_layout</text>
<text text-anchor="start" x="484" y="-378.9" font-family="Times Roman,serif" font-size="14.00">mixpanel_env</text>
<text text-anchor="start" x="484" y="-360.9" font-family="Times Roman,serif" font-size="14.00">set_locale</text>
</g>
<!-- SessionsController -->
<g id="node18" class="node"><title>SessionsController</title>
<polyline fill="none" stroke="black" points="763,-951.5 883,-951.5 "/>
<path fill="none" stroke="black" d="M883,-951.5C889,-951.5 895,-957.5 895,-963.5"/>
<polyline fill="none" stroke="black" points="895,-963.5 895,-1077.5 "/>
<path fill="none" stroke="black" d="M895,-1077.5C895,-1083.5 889,-1089.5 883,-1089.5"/>
<polyline fill="none" stroke="black" points="883,-1089.5 763,-1089.5 "/>
<path fill="none" stroke="black" d="M763,-1089.5C757,-1089.5 751,-1083.5 751,-1077.5"/>
<polyline fill="none" stroke="black" points="751,-1077.5 751,-963.5 "/>
<path fill="none" stroke="black" d="M751,-963.5C751,-957.5 757,-951.5 763,-951.5"/>
<text text-anchor="middle" x="823" y="-1072.9" font-family="Times Roman,serif" font-size="14.00">SessionsController</text>
<polyline fill="none" stroke="black" points="751,-1063.5 895,-1063.5 "/>
<text text-anchor="start" x="759" y="-1046.9" font-family="Times Roman,serif" font-size="14.00">create</text>
<text text-anchor="start" x="759" y="-1028.9" font-family="Times Roman,serif" font-size="14.00">destroy</text>
<text text-anchor="start" x="759" y="-1010.9" font-family="Times Roman,serif" font-size="14.00">failure</text>
<polyline fill="none" stroke="black" points="751,-1001.5 895,-1001.5 "/>
<polyline fill="none" stroke="black" points="751,-977.5 895,-977.5 "/>
<text text-anchor="start" x="759" y="-960.9" font-family="Times Roman,serif" font-size="14.00">_layout</text>
</g>
<!-- ResponsesController -->
<g id="node19" class="node"><title>ResponsesController</title>
<polyline fill="none" stroke="black" points="463,-851.5 686,-851.5 "/>
<path fill="none" stroke="black" d="M686,-851.5C692,-851.5 698,-857.5 698,-863.5"/>
<polyline fill="none" stroke="black" points="698,-863.5 698,-1283.5 "/>
<path fill="none" stroke="black" d="M698,-1283.5C698,-1289.5 692,-1295.5 686,-1295.5"/>
<polyline fill="none" stroke="black" points="686,-1295.5 463,-1295.5 "/>
<path fill="none" stroke="black" d="M463,-1295.5C457,-1295.5 451,-1289.5 451,-1283.5"/>
<polyline fill="none" stroke="black" points="451,-1283.5 451,-863.5 "/>
<path fill="none" stroke="black" d="M451,-863.5C451,-857.5 457,-851.5 463,-851.5"/>
<text text-anchor="middle" x="574.5" y="-1278.9" font-family="Times Roman,serif" font-size="14.00">ResponsesController</text>
<polyline fill="none" stroke="black" points="451,-1269.5 698,-1269.5 "/>
<text text-anchor="start" x="459" y="-1252.9" font-family="Times Roman,serif" font-size="14.00">_callback_before_397</text>
<text text-anchor="start" x="459" y="-1234.9" font-family="Times Roman,serif" font-size="14.00">_callback_before_399</text>
<text text-anchor="start" x="459" y="-1216.9" font-family="Times Roman,serif" font-size="14.00">_one_time_conditions_valid_398?</text>
<text text-anchor="start" x="459" y="-1198.9" font-family="Times Roman,serif" font-size="14.00">_one_time_conditions_valid_400?</text>
<text text-anchor="start" x="459" y="-1180.9" font-family="Times Roman,serif" font-size="14.00">_one_time_conditions_valid_402?</text>
<text text-anchor="start" x="459" y="-1162.9" font-family="Times Roman,serif" font-size="14.00">_one_time_conditions_valid_404?</text>
<text text-anchor="start" x="459" y="-1144.9" font-family="Times Roman,serif" font-size="14.00">_one_time_conditions_valid_408?</text>
<text text-anchor="start" x="459" y="-1126.9" font-family="Times Roman,serif" font-size="14.00">_one_time_conditions_valid_414?</text>
<text text-anchor="start" x="459" y="-1108.9" font-family="Times Roman,serif" font-size="14.00">create</text>
<text text-anchor="start" x="459" y="-1090.9" font-family="Times Roman,serif" font-size="14.00">destroy</text>
<text text-anchor="start" x="459" y="-1072.9" font-family="Times Roman,serif" font-size="14.00">edit</text>
<text text-anchor="start" x="459" y="-1054.9" font-family="Times Roman,serif" font-size="14.00">generate_excel</text>
<text text-anchor="start" x="459" y="-1036.9" font-family="Times Roman,serif" font-size="14.00">index</text>
<text text-anchor="start" x="459" y="-1018.9" font-family="Times Roman,serif" font-size="14.00">show</text>
<text text-anchor="start" x="459" y="-1000.9" font-family="Times Roman,serif" font-size="14.00">update</text>
<polyline fill="none" stroke="black" points="451,-991.5 698,-991.5 "/>
<polyline fill="none" stroke="black" points="451,-967.5 698,-967.5 "/>
<text text-anchor="start" x="459" y="-950.9" font-family="Times Roman,serif" font-size="14.00">_layout</text>
<text text-anchor="start" x="459" y="-932.9" font-family="Times Roman,serif" font-size="14.00">authorize_public_response</text>
<text text-anchor="start" x="459" y="-914.9" font-family="Times Roman,serif" font-size="14.00">public_response?</text>
<text text-anchor="start" x="459" y="-896.9" font-family="Times Roman,serif" font-size="14.00">send_destroy_to_mixpanel</text>
<text text-anchor="start" x="459" y="-878.9" font-family="Times Roman,serif" font-size="14.00">survey_finalized</text>
<text text-anchor="start" x="459" y="-860.9" font-family="Times Roman,serif" font-size="14.00">survey_not_expired</text>
</g>
<!-- PublicationsController -->
<g id="node20" class="node"><title>PublicationsController</title>
<polyline fill="none" stroke="black" points="1063,-151.5 1286,-151.5 "/>
<path fill="none" stroke="black" d="M1286,-151.5C1292,-151.5 1298,-157.5 1298,-163.5"/>
<polyline fill="none" stroke="black" points="1298,-163.5 1298,-367.5 "/>
<path fill="none" stroke="black" d="M1298,-367.5C1298,-373.5 1292,-379.5 1286,-379.5"/>
<polyline fill="none" stroke="black" points="1286,-379.5 1063,-379.5 "/>
<path fill="none" stroke="black" d="M1063,-379.5C1057,-379.5 1051,-373.5 1051,-367.5"/>
<polyline fill="none" stroke="black" points="1051,-367.5 1051,-163.5 "/>
<path fill="none" stroke="black" d="M1051,-163.5C1051,-157.5 1057,-151.5 1063,-151.5"/>
<text text-anchor="middle" x="1174.5" y="-362.9" font-family="Times Roman,serif" font-size="14.00">PublicationsController</text>
<polyline fill="none" stroke="black" points="1051,-353.5 1298,-353.5 "/>
<text text-anchor="start" x="1059" y="-336.9" font-family="Times Roman,serif" font-size="14.00">_callback_after_419</text>
<text text-anchor="start" x="1059" y="-318.9" font-family="Times Roman,serif" font-size="14.00">_one_time_conditions_valid_418?</text>
<text text-anchor="start" x="1059" y="-300.9" font-family="Times Roman,serif" font-size="14.00">_one_time_conditions_valid_422?</text>
<text text-anchor="start" x="1059" y="-282.9" font-family="Times Roman,serif" font-size="14.00">destroy</text>
<text text-anchor="start" x="1059" y="-264.9" font-family="Times Roman,serif" font-size="14.00">edit</text>
<text text-anchor="start" x="1059" y="-246.9" font-family="Times Roman,serif" font-size="14.00">unpublish</text>
<text text-anchor="start" x="1059" y="-228.9" font-family="Times Roman,serif" font-size="14.00">update</text>
<polyline fill="none" stroke="black" points="1051,-219.5 1298,-219.5 "/>
<polyline fill="none" stroke="black" points="1051,-195.5 1298,-195.5 "/>
<text text-anchor="start" x="1059" y="-178.9" font-family="Times Roman,serif" font-size="14.00">_layout</text>
<text text-anchor="start" x="1059" y="-160.9" font-family="Times Roman,serif" font-size="14.00">require_finalized_survey</text>
</g>
<!-- OrganizationDashboardsController -->
<g id="node21" class="node"><title>OrganizationDashboardsController</title>
<polyline fill="none" stroke="black" points="163,-1051.5 396,-1051.5 "/>
<path fill="none" stroke="black" d="M396,-1051.5C402,-1051.5 408,-1057.5 408,-1063.5"/>
<polyline fill="none" stroke="black" points="408,-1063.5 408,-1159.5 "/>
<path fill="none" stroke="black" d="M408,-1159.5C408,-1165.5 402,-1171.5 396,-1171.5"/>
<polyline fill="none" stroke="black" points="396,-1171.5 163,-1171.5 "/>
<path fill="none" stroke="black" d="M163,-1171.5C157,-1171.5 151,-1165.5 151,-1159.5"/>
<polyline fill="none" stroke="black" points="151,-1159.5 151,-1063.5 "/>
<path fill="none" stroke="black" d="M151,-1063.5C151,-1057.5 157,-1051.5 163,-1051.5"/>
<text text-anchor="middle" x="279.5" y="-1154.9" font-family="Times Roman,serif" font-size="14.00">OrganizationDashboardsController</text>
<polyline fill="none" stroke="black" points="151,-1145.5 408,-1145.5 "/>
<text text-anchor="start" x="159" y="-1128.9" font-family="Times Roman,serif" font-size="14.00">index</text>
<text text-anchor="start" x="159" y="-1110.9" font-family="Times Roman,serif" font-size="14.00">show</text>
<polyline fill="none" stroke="black" points="151,-1101.5 408,-1101.5 "/>
<polyline fill="none" stroke="black" points="151,-1077.5 408,-1077.5 "/>
<text text-anchor="start" x="159" y="-1060.9" font-family="Times Roman,serif" font-size="14.00">_layout</text>
</g>
</g>
</svg>
