<?xml version="1.0" encoding="UTF-8" standalone="no"?>
<!DOCTYPE svg PUBLIC "-//W3C//DTD SVG 1.1//EN"
 "http://www.w3.org/Graphics/SVG/1.1/DTD/svg11.dtd">
<!-- Generated by graphviz version 2.26.3 (20100126.1600)
 -->
<!-- Title: models_diagram Pages: 1 -->
<svg width="3865pt" height="472pt"
 viewBox="0.00 0.00 3865.00 472.00" xmlns="http://www.w3.org/2000/svg" xmlns:xlink="http://www.w3.org/1999/xlink">
<g id="graph1" class="graph" transform="scale(1 1) rotate(0) translate(4 468)">
<title>models_diagram</title>
<polygon fill="white" stroke="white" points="-4,5 -4,-468 3862,-468 3862,5 -4,5"/>
<!-- _diagram_info -->
<g id="node1" class="node"><title>_diagram_info</title>
<text text-anchor="start" x="8" y="-447.8" font-family="Times Roman,serif" font-size="13.00">Models diagram</text>
<text text-anchor="start" x="8" y="-430.8" font-family="Times Roman,serif" font-size="13.00">Date: Dec 28 2014 &#45; 13:24</text>
<text text-anchor="start" x="8" y="-413.8" font-family="Times Roman,serif" font-size="13.00">Migration version: 20130711130450</text>
<text text-anchor="start" x="8" y="-396.8" font-family="Times Roman,serif" font-size="13.00">Generated by RailRoady 1.2.0</text>
<text text-anchor="start" x="8" y="-379.8" font-family="Times Roman,serif" font-size="13.00">http://railroady.prestonlee.com</text>
</g>
<!-- QuestionWithOptions -->
<g id="node2" class="node"><title>QuestionWithOptions</title>
<ellipse fill="none" stroke="black" cx="385" cy="-417" rx="116.88" ry="18.3848"/>
<text text-anchor="middle" x="385" y="-413.4" font-family="Times Roman,serif" font-size="14.00">QuestionWithOptions</text>
</g>
<!-- Option -->
<g id="node13" class="node"><title>Option</title>
<ellipse fill="none" stroke="black" cx="629" cy="-315" rx="44.0472" ry="18.3848"/>
<text text-anchor="middle" x="629" y="-311.4" font-family="Times Roman,serif" font-size="14.00">Option</text>
</g>
<!-- QuestionWithOptions&#45;&gt;Option -->
<g id="edge4" class="edge"><title>QuestionWithOptions&#45;&gt;Option</title>
<path fill="none" stroke="#937eef" d="M434.277,-396.401C479.521,-377.487 545.778,-349.789 588.146,-332.078"/>
<ellipse fill="none" stroke="#937eef" cx="430.358" cy="-398.039" rx="4.00001" ry="4.00001"/>
<polygon fill="#937eef" stroke="#937eef" points="588.365,-331.987 599.327,-332.282 592.978,-330.058 597.591,-328.13 597.591,-328.13 597.591,-328.13 592.978,-330.058 595.855,-323.978 588.365,-331.987 588.365,-331.987"/>
</g>
<!-- Answer -->
<g id="node19" class="node"><title>Answer</title>
<ellipse fill="none" stroke="black" cx="1225" cy="-93" rx="48.7904" ry="18.3848"/>
<text text-anchor="middle" x="1225" y="-89.4" font-family="Times Roman,serif" font-size="14.00">Answer</text>
</g>
<!-- QuestionWithOptions&#45;&gt;Answer -->
<g id="edge2" class="edge"><title>QuestionWithOptions&#45;&gt;Answer</title>
<path fill="none" stroke="#1c10e5" d="M378.674,-390.045C367.623,-335.388 351.904,-211.339 419,-148 446.107,-122.411 984.184,-101.388 1165.75,-94.9981"/>
<ellipse fill="none" stroke="#1c10e5" cx="379.568" cy="-394.288" rx="4.00001" ry="4.00001"/>
<polygon fill="#1c10e5" stroke="#1c10e5" points="1165.92,-94.9923 1176.08,-99.1399 1170.92,-94.8174 1175.92,-94.6426 1175.92,-94.6426 1175.92,-94.6426 1170.92,-94.8174 1175.76,-90.1454 1165.92,-94.9923 1165.92,-94.9923"/>
</g>
<!-- DropDownQuestion -->
<g id="node3" class="node"><title>DropDownQuestion</title>
<ellipse fill="none" stroke="black" cx="629" cy="-417" rx="108.894" ry="18.3848"/>
<text text-anchor="middle" x="629" y="-413.4" font-family="Times Roman,serif" font-size="14.00">DropDownQuestion</text>
</g>
<!-- DropDownQuestion&#45;&gt;Option -->
<g id="edge8" class="edge"><title>DropDownQuestion&#45;&gt;Option</title>
<path fill="none" stroke="#a4f8a6" d="M629,-390.015C629,-375.835 629,-358.445 629,-343.98"/>
<ellipse fill="none" stroke="#a4f8a6" cx="629" cy="-394.292" rx="4" ry="4"/>
<polygon fill="#a4f8a6" stroke="#a4f8a6" points="629,-343.59 633.5,-333.59 629,-338.59 629,-333.59 629,-333.59 629,-333.59 629,-338.59 624.5,-333.59 629,-343.59 629,-343.59"/>
</g>
<!-- DropDownQuestion&#45;&gt;Answer -->
<g id="edge6" class="edge"><title>DropDownQuestion&#45;&gt;Answer</title>
<path fill="none" stroke="#eba492" d="M592.85,-394.598C519.238,-346.371 365.166,-230.42 442,-148 466.627,-121.582 987.569,-101.196 1165.81,-94.9725"/>
<ellipse fill="none" stroke="#eba492" cx="596.356" cy="-396.873" rx="4.00002" ry="4.00002"/>
<polygon fill="#eba492" stroke="#eba492" points="1166.05,-94.9641 1176.2,-99.1148 1171.05,-94.7908 1176.05,-94.6175 1176.05,-94.6175 1176.05,-94.6175 1171.05,-94.7908 1175.89,-90.1202 1166.05,-94.9641 1166.05,-94.9641"/>
</g>
<!-- Question -->
<g id="node4" class="node"><title>Question</title>
<ellipse fill="none" stroke="black" cx="507" cy="-167" rx="55.8614" ry="18.3848"/>
<text text-anchor="middle" x="507" y="-163.4" font-family="Times Roman,serif" font-size="14.00">Question</text>
</g>
<!-- Question&#45;&gt;Answer -->
<g id="edge10" class="edge"><title>Question&#45;&gt;Answer</title>
<path fill="none" stroke="#30f844" d="M554.725,-151.874C560.505,-150.392 566.358,-149.051 572,-148 788.322,-107.695 1050.51,-96.898 1165.78,-94.0276"/>
<ellipse fill="none" stroke="#30f844" cx="550.781" cy="-152.933" rx="4.00001" ry="4.00001"/>
<polygon fill="#30f844" stroke="#30f844" points="1165.82,-94.0269 1175.92,-98.2875 1170.81,-93.9079 1175.81,-93.7888 1175.81,-93.7888 1175.81,-93.7888 1170.81,-93.9079 1175.71,-89.2901 1165.82,-94.0269 1165.82,-94.0269"/>
</g>
<!-- Organization -->
<g id="node5" class="node"><title>Organization</title>
<polygon fill="none" stroke="black" points="1961,-435 1855,-435 1855,-399 1961,-399 1961,-435"/>
<text text-anchor="middle" x="1908" y="-413.4" font-family="Times Roman,serif" font-size="14.00">Organization</text>
</g>
<!-- ParticipatingOrganization -->
<g id="node6" class="node"><title>ParticipatingOrganization</title>
<ellipse fill="none" stroke="black" cx="1315" cy="-241" rx="135.972" ry="18.3848"/>
<text text-anchor="middle" x="1315" y="-237.4" font-family="Times Roman,serif" font-size="14.00">ParticipatingOrganization</text>
</g>
<!-- MultilineQuestion -->
<g id="node7" class="node"><title>MultilineQuestion</title>
<ellipse fill="none" stroke="black" cx="678" cy="-167" rx="97.0803" ry="18.3848"/>
<text text-anchor="middle" x="678" y="-163.4" font-family="Times Roman,serif" font-size="14.00">MultilineQuestion</text>
</g>
<!-- MultilineQuestion&#45;&gt;Answer -->
<g id="edge12" class="edge"><title>MultilineQuestion&#45;&gt;Answer</title>
<path fill="none" stroke="#8e5cdc" d="M755.495,-152.618C765.082,-150.984 774.758,-149.404 784,-148 921.117,-127.176 1083.1,-108.479 1167.43,-99.1888"/>
<ellipse fill="none" stroke="#8e5cdc" cx="751.417" cy="-153.321" rx="4.00001" ry="4.00001"/>
<polygon fill="#8e5cdc" stroke="#8e5cdc" points="1167.63,-99.1671 1178.06,-102.549 1172.6,-98.6216 1177.57,-98.076 1177.57,-98.076 1177.57,-98.076 1172.6,-98.6216 1177.08,-93.6029 1167.63,-99.1671 1167.63,-99.1671"/>
</g>
<!-- DateQuestion -->
<g id="node8" class="node"><title>DateQuestion</title>
<ellipse fill="none" stroke="black" cx="873" cy="-167" rx="79.9031" ry="18.3848"/>
<text text-anchor="middle" x="873" y="-163.4" font-family="Times Roman,serif" font-size="14.00">DateQuestion</text>
</g>
<!-- DateQuestion&#45;&gt;Answer -->
<g id="edge14" class="edge"><title>DateQuestion&#45;&gt;Answer</title>
<path fill="none" stroke="#b883f1" d="M939.929,-152.68C947.374,-151.097 954.848,-149.511 962,-148 1034.68,-132.643 1118.7,-115.111 1171.83,-104.051"/>
<ellipse fill="none" stroke="#b883f1" cx="935.789" cy="-153.562" rx="4.00001" ry="4.00001"/>
<polygon fill="#b883f1" stroke="#b883f1" points="1171.92,-104.033 1182.62,-106.401 1176.81,-103.015 1181.71,-101.996 1181.71,-101.996 1181.71,-101.996 1176.81,-103.015 1180.79,-97.5902 1171.92,-104.033 1171.92,-104.033"/>
</g>
<!-- NumericQuestion -->
<g id="node9" class="node"><title>NumericQuestion</title>
<ellipse fill="none" stroke="black" cx="1067" cy="-167" rx="96.1665" ry="18.3848"/>
<text text-anchor="middle" x="1067" y="-163.4" font-family="Times Roman,serif" font-size="14.00">NumericQuestion</text>
</g>
<!-- NumericQuestion&#45;&gt;Answer -->
<g id="edge16" class="edge"><title>NumericQuestion&#45;&gt;Answer</title>
<path fill="none" stroke="#4ed394" d="M1110.92,-146.429C1134.07,-135.585 1162.27,-122.379 1184.84,-111.809"/>
<ellipse fill="none" stroke="#4ed394" cx="1107.27" cy="-148.14" rx="4.00002" ry="4.00002"/>
<polygon fill="#4ed394" stroke="#4ed394" points="1185.08,-111.696 1196.05,-111.53 1189.61,-109.575 1194.14,-107.455 1194.14,-107.455 1194.14,-107.455 1189.61,-109.575 1192.23,-103.379 1185.08,-111.696 1185.08,-111.696"/>
</g>
<!-- Publisher -->
<g id="node10" class="node"><title>Publisher</title>
<polygon fill="none" stroke="black" points="2059,-435 1979,-435 1979,-399 2059,-399 2059,-435"/>
<text text-anchor="middle" x="2019" y="-413.4" font-family="Times Roman,serif" font-size="14.00">Publisher</text>
</g>
<!-- MixPanel -->
<g id="node11" class="node"><title>MixPanel</title>
<polygon fill="none" stroke="black" points="2155,-435 2077,-435 2077,-399 2155,-399 2155,-435"/>
<text text-anchor="middle" x="2116" y="-413.4" font-family="Times Roman,serif" font-size="14.00">MixPanel</text>
</g>
<!-- Sanitizer -->
<g id="node12" class="node"><title>Sanitizer</title>
<polygon fill="none" stroke="black" points="2251,-435 2173,-435 2173,-399 2251,-399 2251,-435"/>
<text text-anchor="middle" x="2212" y="-413.4" font-family="Times Roman,serif" font-size="14.00">Sanitizer</text>
</g>
<!-- Option&#45;&gt;Question -->
<g id="edge18" class="edge"><title>Option&#45;&gt;Question</title>
<path fill="none" stroke="#820f74" d="M609.283,-291.081C587.138,-264.217 551.318,-220.763 528.478,-193.055"/>
<ellipse fill="none" stroke="#820f74" cx="611.982" cy="-294.355" rx="4.00002" ry="4.00002"/>
<polygon fill="#820f74" stroke="#820f74" points="528.196,-192.714 525.308,-182.135 525.016,-188.856 521.836,-184.997 521.836,-184.997 521.836,-184.997 525.016,-188.856 518.363,-187.86 528.196,-192.714 528.196,-192.714"/>
</g>
<!-- Category -->
<g id="node22" class="node"><title>Category</title>
<ellipse fill="none" stroke="black" cx="666" cy="-241" rx="56.0679" ry="18.3848"/>
<text text-anchor="middle" x="666" y="-237.4" font-family="Times Roman,serif" font-size="14.00">Category</text>
</g>
<!-- Option&#45;&gt;Category -->
<g id="edge20" class="edge"><title>Option&#45;&gt;Category</title>
<path fill="none" stroke="#dc7e18" d="M641.786,-289.427C645.19,-282.621 648.879,-275.243 652.327,-268.346"/>
<ellipse fill="none" stroke="#dc7e18" cx="639.935" cy="-293.13" rx="4.00002" ry="4.00002"/>
<polygon fill="#dc7e18" stroke="#dc7e18" points="652.359,-268.282 660.856,-261.351 654.595,-263.81 656.831,-259.338 656.831,-259.338 656.831,-259.338 654.595,-263.81 652.806,-257.326 652.359,-268.282 652.359,-268.282"/>
</g>
<!-- ResponseSerializer -->
<g id="node14" class="node"><title>ResponseSerializer</title>
<polygon fill="none" stroke="black" points="2415,-435 2269,-435 2269,-399 2415,-399 2415,-435"/>
<text text-anchor="middle" x="2342" y="-413.4" font-family="Times Roman,serif" font-size="14.00">ResponseSerializer</text>
</g>
<!-- MultiChoiceQuestion -->
<g id="node15" class="node"><title>MultiChoiceQuestion</title>
<ellipse fill="none" stroke="black" cx="1318" cy="-417" rx="111.93" ry="18.3848"/>
<text text-anchor="middle" x="1318" y="-413.4" font-family="Times Roman,serif" font-size="14.00">MultiChoiceQuestion</text>
</g>
<!-- MultiChoiceQuestion&#45;&gt;Option -->
<g id="edge24" class="edge"><title>MultiChoiceQuestion&#45;&gt;Option</title>
<path fill="none" stroke="#b66a0a" d="M1205.16,-409.615C1076.97,-399.538 862.188,-377.521 682,-334 678.366,-333.122 674.634,-332.083 670.916,-330.949"/>
<ellipse fill="none" stroke="#b66a0a" cx="1209.49" cy="-409.951" rx="4" ry="4"/>
<polygon fill="#b66a0a" stroke="#b66a0a" points="670.687,-330.874 662.573,-323.497 665.933,-329.325 661.179,-327.776 661.179,-327.776 661.179,-327.776 665.933,-329.325 659.784,-332.054 670.687,-330.874 670.687,-330.874"/>
</g>
<!-- MultiChoiceQuestion&#45;&gt;Answer -->
<g id="edge22" class="edge"><title>MultiChoiceQuestion&#45;&gt;Answer</title>
<path fill="none" stroke="#68e4f1" d="M1422.03,-406.412C1627.53,-381.743 2053.22,-309.799 1904,-148 1883.09,-125.323 1445.13,-103.072 1283.9,-95.6196"/>
<ellipse fill="none" stroke="#68e4f1" cx="1417.89" cy="-406.904" rx="4.00001" ry="4.00001"/>
<polygon fill="#68e4f1" stroke="#68e4f1" points="1283.68,-95.6094 1273.9,-90.655 1278.69,-95.3798 1273.69,-95.1502 1273.69,-95.1502 1273.69,-95.1502 1278.69,-95.3798 1273.49,-99.6455 1283.68,-95.6094 1283.68,-95.6094"/>
</g>
<!-- User -->
<g id="node16" class="node"><title>User</title>
<polygon fill="none" stroke="black" points="2487,-435 2433,-435 2433,-399 2487,-399 2487,-435"/>
<text text-anchor="middle" x="2460" y="-413.4" font-family="Times Roman,serif" font-size="14.00">User</text>
</g>
<!-- SingleLineQuestion -->
<g id="node17" class="node"><title>SingleLineQuestion</title>
<ellipse fill="none" stroke="black" cx="1393" cy="-167" rx="106.066" ry="18.3848"/>
<text text-anchor="middle" x="1393" y="-163.4" font-family="Times Roman,serif" font-size="14.00">SingleLineQuestion</text>
</g>
<!-- SingleLineQuestion&#45;&gt;Answer -->
<g id="edge26" class="edge"><title>SingleLineQuestion&#45;&gt;Answer</title>
<path fill="none" stroke="#9e482a" d="M1346.18,-146.379C1321.13,-135.342 1290.54,-121.87 1266.37,-111.221"/>
<ellipse fill="none" stroke="#9e482a" cx="1349.95" cy="-148.038" rx="4.00002" ry="4.00002"/>
<polygon fill="#9e482a" stroke="#9e482a" points="1266.26,-111.173 1258.92,-103.024 1261.68,-109.157 1257.11,-107.142 1257.11,-107.142 1257.11,-107.142 1261.68,-109.157 1255.29,-111.26 1266.26,-111.173 1266.26,-111.173"/>
</g>
<!-- PhotoQuestion -->
<g id="node18" class="node"><title>PhotoQuestion</title>
<ellipse fill="none" stroke="black" cx="1601" cy="-167" rx="84.1457" ry="18.3848"/>
<text text-anchor="middle" x="1601" y="-163.4" font-family="Times Roman,serif" font-size="14.00">PhotoQuestion</text>
</g>
<!-- PhotoQuestion&#45;&gt;Answer -->
<g id="edge28" class="edge"><title>PhotoQuestion&#45;&gt;Answer</title>
<path fill="none" stroke="#14bc86" d="M1531.57,-152.739C1523.62,-151.13 1515.64,-149.522 1508,-148 1428.35,-132.125 1335.98,-114.279 1279.01,-103.338"/>
<ellipse fill="none" stroke="#14bc86" cx="1535.57" cy="-153.55" rx="4.00001" ry="4.00001"/>
<polygon fill="#14bc86" stroke="#14bc86" points="1278.96,-103.329 1269.99,-97.0241 1274.05,-102.386 1269.14,-101.443 1269.14,-101.443 1269.14,-101.443 1274.05,-102.386 1268.29,-105.863 1278.96,-103.329 1278.96,-103.329"/>
</g>
<!-- Choice -->
<g id="node21" class="node"><title>Choice</title>
<ellipse fill="none" stroke="black" cx="1225" cy="-19" rx="43.8406" ry="18.3848"/>
<text text-anchor="middle" x="1225" y="-15.4" font-family="Times Roman,serif" font-size="14.00">Choice</text>
</g>
<!-- Answer&#45;&gt;Choice -->
<g id="edge30" class="edge"><title>Answer&#45;&gt;Choice</title>
<path fill="none" stroke="#eeaa8e" d="M1225,-66.309C1225,-60.3769 1225,-54.0606 1225,-48.0396"/>
<ellipse fill="none" stroke="#eeaa8e" cx="1225" cy="-70.3267" rx="4" ry="4"/>
<polygon fill="#eeaa8e" stroke="#eeaa8e" points="1225,-47.6674 1229.5,-37.6673 1225,-42.6674 1225,-37.6674 1225,-37.6674 1225,-37.6674 1225,-42.6674 1220.5,-37.6674 1225,-47.6674 1225,-47.6674"/>
</g>
<!-- RatingQuestion -->
<g id="node20" class="node"><title>RatingQuestion</title>
<ellipse fill="none" stroke="black" cx="1790" cy="-167" rx="87.1802" ry="18.3848"/>
<text text-anchor="middle" x="1790" y="-163.4" font-family="Times Roman,serif" font-size="14.00">RatingQuestion</text>
</g>
<!-- RatingQuestion&#45;&gt;Answer -->
<g id="edge32" class="edge"><title>RatingQuestion&#45;&gt;Answer</title>
<path fill="none" stroke="#f9e07f" d="M1719.93,-152.471C1711.22,-150.859 1702.42,-149.324 1694,-148 1546.57,-124.803 1371.66,-106.785 1282.9,-98.3107"/>
<ellipse fill="none" stroke="#f9e07f" cx="1723.97" cy="-153.229" rx="4.00001" ry="4.00001"/>
<polygon fill="#f9e07f" stroke="#f9e07f" points="1282.72,-98.2942 1273.19,-92.8694 1277.75,-97.8217 1272.77,-97.3493 1272.77,-97.3493 1272.77,-97.3493 1277.75,-97.8217 1272.34,-101.829 1282.72,-98.2942 1282.72,-98.2942"/>
</g>
<!-- Category&#45;&gt;Question -->
<g id="edge34" class="edge"><title>Category&#45;&gt;Question</title>
<path fill="none" stroke="#12f885" d="M626.124,-222.441C602.509,-211.451 572.628,-197.544 548.701,-186.408"/>
<ellipse fill="none" stroke="#12f885" cx="629.814" cy="-224.159" rx="4.00002" ry="4.00002"/>
<polygon fill="#12f885" stroke="#12f885" points="548.582,-186.353 541.415,-178.054 544.049,-184.243 539.516,-182.133 539.516,-182.133 539.516,-182.133 544.049,-184.243 537.617,-186.213 548.582,-186.353 548.582,-186.353"/>
</g>
<!-- Category&#45;&gt;Category -->
<g id="edge36" class="edge"><title>Category&#45;&gt;Category</title>
<path fill="none" stroke="#ea772e" d="M712.653,-254.874C727.881,-254.794 740,-250.169 740,-241 740,-232.251 728.967,-227.64 714.728,-227.166"/>
<ellipse fill="none" stroke="#ea772e" cx="708.45" cy="-254.683" rx="4" ry="4"/>
<polygon fill="#ea772e" stroke="#ea772e" points="714.449,-227.175 704.308,-223.001 709.451,-227.337 704.454,-227.498 704.454,-227.498 704.454,-227.498 709.451,-227.337 704.6,-231.996 714.449,-227.175 714.449,-227.175"/>
</g>
<!-- Reports::Excel::Responses -->
<g id="node23" class="node"><title>Reports::Excel::Responses</title>
<polygon fill="none" stroke="black" points="2699,-435 2505,-435 2505,-399 2699,-399 2699,-435"/>
<text text-anchor="middle" x="2602" y="-413.4" font-family="Times Roman,serif" font-size="14.00">Reports::Excel::Responses</text>
</g>
<!-- Reports::Excel::Job -->
<g id="node24" class="node"><title>Reports::Excel::Job</title>
<polygon fill="none" stroke="black" points="2861,-435 2717,-435 2717,-399 2861,-399 2861,-435"/>
<text text-anchor="middle" x="2789" y="-413.4" font-family="Times Roman,serif" font-size="14.00">Reports::Excel::Job</text>
</g>
<!-- Reports::Excel::Data -->
<g id="node25" class="node"><title>Reports::Excel::Data</title>
<polygon fill="none" stroke="black" points="3035,-435 2879,-435 2879,-399 3035,-399 3035,-435"/>
<text text-anchor="middle" x="2957" y="-413.4" font-family="Times Roman,serif" font-size="14.00">Reports::Excel::Data</text>
</g>
<!-- Reports::Excel::Metadata -->
<g id="node26" class="node"><title>Reports::Excel::Metadata</title>
<polygon fill="none" stroke="black" points="3241,-435 3053,-435 3053,-399 3241,-399 3241,-435"/>
<text text-anchor="middle" x="3147" y="-413.4" font-family="Times Roman,serif" font-size="14.00">Reports::Excel::Metadata</text>
</g>
<!-- Reports::Excel::Questions -->
<g id="node27" class="node"><title>Reports::Excel::Questions</title>
<polygon fill="none" stroke="black" points="3451,-435 3259,-435 3259,-399 3451,-399 3451,-435"/>
<text text-anchor="middle" x="3355" y="-413.4" font-family="Times Roman,serif" font-size="14.00">Reports::Excel::Questions</text>
</g>
<!-- Reports::Excel::Row -->
<g id="node28" class="node"><title>Reports::Excel::Row</title>
<polygon fill="none" stroke="black" points="3621,-435 3469,-435 3469,-399 3621,-399 3621,-435"/>
<text text-anchor="middle" x="3545" y="-413.4" font-family="Times Roman,serif" font-size="14.00">Reports::Excel::Row</text>
</g>
<!-- SurveyFilter -->
<g id="node29" class="node"><title>SurveyFilter</title>
<polygon fill="none" stroke="black" points="3739,-435 3639,-435 3639,-399 3739,-399 3739,-435"/>
<text text-anchor="middle" x="3689" y="-413.4" font-family="Times Roman,serif" font-size="14.00">SurveyFilter</text>
</g>
<!-- Survey -->
<g id="node30" class="node"><title>Survey</title>
<ellipse fill="none" stroke="black" cx="1104" cy="-315" rx="45.9619" ry="18.3848"/>
<text text-anchor="middle" x="1104" y="-311.4" font-family="Times Roman,serif" font-size="14.00">Survey</text>
</g>
<!-- Survey&#45;&gt;Question -->
<g id="edge38" class="edge"><title>Survey&#45;&gt;Question</title>
<path fill="none" stroke="#de58db" d="M1060.26,-300.81C998.369,-281.108 881.47,-245.272 780,-222 688.555,-201.027 663.393,-207.195 572,-186 567.376,-184.928 562.593,-183.721 557.818,-182.449"/>
<ellipse fill="none" stroke="#de58db" cx="1064.08" cy="-302.03" rx="4.00001" ry="4.00001"/>
<polygon fill="#de58db" stroke="#de58db" points="557.719,-182.422 549.271,-175.43 552.898,-181.095 548.077,-179.768 548.077,-179.768 548.077,-179.768 552.898,-181.095 546.883,-184.107 557.719,-182.422 557.719,-182.422"/>
</g>
<!-- Survey&#45;&gt;ParticipatingOrganization -->
<g id="edge46" class="edge"><title>Survey&#45;&gt;ParticipatingOrganization</title>
<path fill="none" stroke="#622eca" d="M1146.39,-300.133C1177.83,-289.107 1221.09,-273.936 1255.92,-261.721"/>
<ellipse fill="none" stroke="#622eca" cx="1142.62" cy="-301.457" rx="4.00001" ry="4.00001"/>
<polygon fill="#622eca" stroke="#622eca" points="1256.06,-261.669 1266.99,-262.606 1260.78,-260.015 1265.5,-258.36 1265.5,-258.36 1265.5,-258.36 1260.78,-260.015 1264.01,-254.114 1256.06,-261.669 1256.06,-261.669"/>
</g>
<!-- Survey&#45;&gt;Category -->
<g id="edge40" class="edge"><title>Survey&#45;&gt;Category</title>
<path fill="none" stroke="#082425" d="M1053.29,-306.433C971.976,-292.695 812.756,-265.794 725.939,-251.127"/>
<ellipse fill="none" stroke="#082425" cx="1057.26" cy="-307.103" rx="4.00001" ry="4.00001"/>
<polygon fill="#082425" stroke="#082425" points="725.837,-251.11 716.726,-245.006 720.907,-250.277 715.977,-249.444 715.977,-249.444 715.977,-249.444 720.907,-250.277 715.227,-253.881 725.837,-251.11 725.837,-251.11"/>
</g>
<!-- Response -->
<g id="node31" class="node"><title>Response</title>
<ellipse fill="none" stroke="black" cx="1104" cy="-241" rx="56.7776" ry="18.3848"/>
<text text-anchor="middle" x="1104" y="-237.4" font-family="Times Roman,serif" font-size="14.00">Response</text>
</g>
<!-- Survey&#45;&gt;Response -->
<g id="edge42" class="edge"><title>Survey&#45;&gt;Response</title>
<path fill="none" stroke="#cd279f" d="M1104,-288.309C1104,-282.377 1104,-276.061 1104,-270.04"/>
<ellipse fill="none" stroke="#cd279f" cx="1104" cy="-292.327" rx="4" ry="4"/>
<polygon fill="#cd279f" stroke="#cd279f" points="1104,-269.667 1108.5,-259.667 1104,-264.667 1104,-259.667 1104,-259.667 1104,-259.667 1104,-264.667 1099.5,-259.667 1104,-269.667 1104,-269.667"/>
</g>
<!-- SurveyUser -->
<g id="node33" class="node"><title>SurveyUser</title>
<ellipse fill="none" stroke="black" cx="1537" cy="-241" rx="68.0887" ry="18.3848"/>
<text text-anchor="middle" x="1537" y="-237.4" font-family="Times Roman,serif" font-size="14.00">SurveyUser</text>
</g>
<!-- Survey&#45;&gt;SurveyUser -->
<g id="edge44" class="edge"><title>Survey&#45;&gt;SurveyUser</title>
<path fill="none" stroke="#bdf360" d="M1156.27,-308.402C1225.89,-299.276 1352.75,-281.472 1460,-260 1465.79,-258.84 1471.81,-257.534 1477.81,-256.165"/>
<ellipse fill="none" stroke="#bdf360" cx="1152.03" cy="-308.954" rx="4.00001" ry="4.00001"/>
<polygon fill="#bdf360" stroke="#bdf360" points="1478.12,-256.094 1488.88,-258.197 1482.98,-254.955 1487.85,-253.815 1487.85,-253.815 1487.85,-253.815 1482.98,-254.955 1486.83,-249.434 1478.12,-256.094 1478.12,-256.094"/>
</g>
<!-- Response&#45;&gt;Answer -->
<g id="edge48" class="edge"><title>Response&#45;&gt;Answer</title>
<path fill="none" stroke="#326b44" d="M1152.19,-225.752C1158.14,-224.277 1164.18,-222.971 1170,-222 1248.57,-208.895 1831.11,-243.722 1886,-186 1897.64,-173.762 1897.44,-160.428 1886,-148 1845.7,-104.203 1439.36,-95.2749 1284.51,-93.4607"/>
<ellipse fill="none" stroke="#326b44" cx="1148.02" cy="-226.841" rx="4.00001" ry="4.00001"/>
<polygon fill="#326b44" stroke="#326b44" points="1284.24,-93.4578 1274.29,-88.8468 1279.24,-93.4022 1274.24,-93.3465 1274.24,-93.3465 1274.24,-93.3465 1279.24,-93.4022 1274.19,-97.8463 1284.24,-93.4578 1284.24,-93.4578"/>
</g>
<!-- Record -->
<g id="node32" class="node"><title>Record</title>
<ellipse fill="none" stroke="black" cx="1225" cy="-167" rx="44.0472" ry="18.3848"/>
<text text-anchor="middle" x="1225" y="-163.4" font-family="Times Roman,serif" font-size="14.00">Record</text>
</g>
<!-- Response&#45;&gt;Record -->
<g id="edge50" class="edge"><title>Response&#45;&gt;Record</title>
<path fill="none" stroke="#3a413b" d="M1137.87,-220.286C1154.47,-210.134 1174.41,-197.937 1191.03,-187.776"/>
<ellipse fill="none" stroke="#3a413b" cx="1134.27" cy="-222.49" rx="4.00002" ry="4.00002"/>
<polygon fill="#3a413b" stroke="#3a413b" points="1191.34,-187.584 1202.22,-186.206 1195.61,-184.975 1199.87,-182.367 1199.87,-182.367 1199.87,-182.367 1195.61,-184.975 1197.53,-178.528 1191.34,-187.584 1191.34,-187.584"/>
</g>
<!-- Record&#45;&gt;Answer -->
<g id="edge52" class="edge"><title>Record&#45;&gt;Answer</title>
<path fill="none" stroke="#ea3307" d="M1225,-140.309C1225,-134.377 1225,-128.061 1225,-122.04"/>
<ellipse fill="none" stroke="#ea3307" cx="1225" cy="-144.327" rx="4" ry="4"/>
<polygon fill="#ea3307" stroke="#ea3307" points="1225,-121.667 1229.5,-111.667 1225,-116.667 1225,-111.667 1225,-111.667 1225,-111.667 1225,-116.667 1220.5,-111.667 1225,-121.667 1225,-121.667"/>
</g>
<!-- PublicAbility -->
<g id="node34" class="node"><title>PublicAbility</title>
<polygon fill="none" stroke="black" points="3857,-435 3757,-435 3757,-399 3857,-399 3857,-435"/>
<text text-anchor="middle" x="3807" y="-413.4" font-family="Times Roman,serif" font-size="14.00">PublicAbility</text>
</g>
<!-- RadioQuestion -->
<g id="node35" class="node"><title>RadioQuestion</title>
<ellipse fill="none" stroke="black" cx="1755" cy="-417" rx="82.2301" ry="18.3848"/>
<text text-anchor="middle" x="1755" y="-413.4" font-family="Times Roman,serif" font-size="14.00">RadioQuestion</text>
</g>
<!-- RadioQuestion&#45;&gt;Option -->
<g id="edge56" class="edge"><title>RadioQuestion&#45;&gt;Option</title>
<path fill="none" stroke="#7ac5f4" d="M1682.46,-404.099C1618.57,-393.243 1522.9,-378.214 1439,-370 1103.78,-337.183 1012.38,-399.553 682,-334 678.12,-333.23 674.142,-332.229 670.194,-331.089"/>
<ellipse fill="none" stroke="#7ac5f4" cx="1686.53" cy="-404.795" rx="4.00001" ry="4.00001"/>
<polygon fill="#7ac5f4" stroke="#7ac5f4" points="670.049,-331.043 661.876,-323.731 665.283,-329.532 660.516,-328.021 660.516,-328.021 660.516,-328.021 665.283,-329.532 659.157,-332.31 670.049,-331.043 670.049,-331.043"/>
</g>
<!-- RadioQuestion&#45;&gt;Answer -->
<g id="edge54" class="edge"><title>RadioQuestion&#45;&gt;Answer</title>
<path fill="none" stroke="#3ddbf7" d="M1796.21,-396.012C1840.9,-370.66 1909.76,-323.391 1939,-260 1949.48,-237.279 1934,-152.727 1929,-148 1882.6,-104.147 1445.61,-95.2445 1284.38,-93.4494"/>
<ellipse fill="none" stroke="#3ddbf7" cx="1792.48" cy="-398.094" rx="4.00002" ry="4.00002"/>
<polygon fill="#3ddbf7" stroke="#3ddbf7" points="1284.17,-93.4472 1274.21,-88.8414 1279.17,-93.3942 1274.17,-93.3412 1274.17,-93.3412 1274.17,-93.3412 1279.17,-93.3942 1274.12,-97.8409 1284.17,-93.4472 1284.17,-93.4472"/>
</g>
<!-- MultiRecordCategory -->
<g id="node36" class="node"><title>MultiRecordCategory</title>
<ellipse fill="none" stroke="black" cx="805" cy="-315" rx="113.844" ry="18.3848"/>
<text text-anchor="middle" x="805" y="-311.4" font-family="Times Roman,serif" font-size="14.00">MultiRecordCategory</text>
</g>
<!-- MultiRecordCategory&#45;&gt;Question -->
<g id="edge58" class="edge"><title>MultiRecordCategory&#45;&gt;Question</title>
<path fill="none" stroke="#a5c476" d="M796.116,-288.976C787.456,-267.632 772.174,-238.361 749,-222 683.419,-175.701 649.928,-205.278 572,-186 567.392,-184.86 562.621,-183.607 557.852,-182.305"/>
<ellipse fill="none" stroke="#a5c476" cx="797.563" cy="-292.713" rx="4.00001" ry="4.00001"/>
<polygon fill="#a5c476" stroke="#a5c476" points="557.752,-182.277 549.333,-175.25 552.937,-180.931 548.122,-179.584 548.122,-179.584 548.122,-179.584 552.937,-180.931 546.91,-183.918 557.752,-182.277 557.752,-182.277"/>
</g>
<!-- MultiRecordCategory&#45;&gt;Category -->
<g id="edge60" class="edge"><title>MultiRecordCategory&#45;&gt;Category</title>
<path fill="none" stroke="#7caa67" d="M764.445,-293.41C745.632,-283.394 723.374,-271.544 704.785,-261.648"/>
<ellipse fill="none" stroke="#7caa67" cx="768.175" cy="-295.395" rx="4.00002" ry="4.00002"/>
<polygon fill="#7caa67" stroke="#7caa67" points="704.539,-261.517 697.827,-252.846 700.126,-259.168 695.712,-256.818 695.712,-256.818 695.712,-256.818 700.126,-259.168 693.598,-260.79 704.539,-261.517 704.539,-261.517"/>
</g>
<!-- MultiRecordCategory&#45;&gt;Record -->
<g id="edge62" class="edge"><title>MultiRecordCategory&#45;&gt;Record</title>
<path fill="none" stroke="#ea48dd" d="M851.996,-294.35C898.631,-274.311 972.426,-243.812 1038,-222 1096.52,-202.536 1113.15,-204.421 1172,-186 1175.37,-184.946 1178.84,-183.812 1182.32,-182.64"/>
<ellipse fill="none" stroke="#ea48dd" cx="848.139" cy="-296.013" rx="4.00002" ry="4.00002"/>
<polygon fill="#ea48dd" stroke="#ea48dd" points="1182.61,-182.54 1193.53,-183.532 1187.34,-180.909 1192.06,-179.278 1192.06,-179.278 1192.06,-179.278 1187.34,-180.909 1190.59,-175.024 1182.61,-182.54 1182.61,-182.54"/>
</g>
</g>
</svg>
